<svg width="56" height="56" viewBox="0 0 56 56" fill="none" xmlns="http://www.w3.org/2000/svg">
<path d="M27.5661 9.31886C27.8403 9.18682 28.1597 9.18682 28.4339 9.31886L42.335 16.0133C42.6092 16.1453 42.8083 16.395 42.876 16.6917L46.3093 31.7339C46.377 32.0306 46.306 32.342 46.1162 32.5799L36.4964 44.6429C36.3066 44.8808 36.0189 45.0194 35.7145 45.0194H20.2855C19.9812 45.0194 19.6934 44.8808 19.5036 44.6429L9.88379 32.5799C9.69404 32.342 9.62297 32.0306 9.69069 31.7339L13.124 16.6917C13.1917 16.395 13.3908 16.1453 13.665 16.0133L27.5661 9.31886L27.1322 8.4179L27.5661 9.31886Z" stroke="url(#paint0_linear_2398_8016)" stroke-width="2"/>
<defs>
<linearGradient id="paint0_linear_2398_8016" x1="45.6812" y1="5.10145" x2="10.3188" y2="50.6087" gradientUnits="userSpaceOnUse">
<stop stop-color="#538BF0"/>
<stop offset="1" stop-color="#1141BD"/>
</linearGradient>
</defs>
</svg>
