<svg width="56" height="56" viewBox="0 0 56 56" fill="none" xmlns="http://www.w3.org/2000/svg">
<path d="M16.125 22.0541H10C9.44772 22.0541 9 22.5018 9 23.0541V49C9 49.5523 9.44772 50 10 50H46C46.5523 50 47 49.5523 47 49V23.0541C47 22.5018 46.5523 22.0541 46 22.0541H40.4688M16.125 22.0541C16.125 11.3514 19.0938 6 28 6C36.9062 6 40.4688 11.3514 40.4688 22.0541M16.125 22.0541H40.4688M33.2319 36.4363L28.7076 40.9671C28.317 41.3583 27.683 41.3583 27.2924 40.9671L22.7681 36.4363C22.3782 36.0459 22.3782 35.4135 22.7681 35.0231L27.2924 30.4924C27.683 30.1012 28.317 30.1012 28.7076 30.4924L33.2319 35.0231C33.6218 35.4135 33.6218 36.0459 33.2319 36.4363Z" stroke="url(#paint0_linear_2500_8110)" stroke-width="2"/>
<defs>
<linearGradient id="paint0_linear_2500_8110" x1="44.7971" y1="2.81159" x2="4.87754" y2="47.1782" gradientUnits="userSpaceOnUse">
<stop stop-color="#538BF0"/>
<stop offset="1" stop-color="#1141BD"/>
</linearGradient>
</defs>
</svg>
