<svg xmlns="http://www.w3.org/2000/svg" xmlns:xlink="http://www.w3.org/1999/xlink" width="40" zoomAndPan="magnify" viewBox="0 0 30 30.000001" height="40" preserveAspectRatio="xMidYMid meet" version="1.0"><defs><clipPath id="6635b06a7b"><path d="M 0.484375 0 L 29.515625 0 L 29.515625 29.03125 L 0.484375 29.03125 Z M 0.484375 0 " clip-rule="nonzero"/></clipPath></defs><g clip-path="url(#6635b06a7b)"><path fill="#004aad" d="M 27.238281 13.375 L 22.253906 13.375 C 21.703125 9.867188 18.660156 7.175781 15 7.175781 C 11.339844 7.175781 8.296875 9.867188 7.746094 13.375 L 2.761719 13.375 L 2.761719 7.769531 C 2.761719 4.742188 5.226562 2.277344 8.253906 2.277344 L 21.746094 2.277344 C 24.773438 2.277344 27.238281 4.742188 27.238281 7.769531 Z M 9.933594 14.515625 C 9.933594 11.722656 12.207031 9.449219 15 9.449219 C 17.792969 9.449219 20.066406 11.722656 20.066406 14.515625 C 20.066406 17.308594 17.792969 19.578125 15 19.578125 C 12.207031 19.578125 9.933594 17.308594 9.933594 14.515625 Z M 27.238281 21.261719 C 27.238281 24.289062 24.773438 26.753906 21.746094 26.753906 L 8.253906 26.753906 C 5.226562 26.753906 2.761719 24.289062 2.761719 21.261719 L 2.761719 15.652344 L 7.746094 15.652344 C 8.292969 19.164062 11.339844 21.855469 15 21.855469 C 18.660156 21.855469 21.703125 19.164062 22.253906 15.652344 L 27.238281 15.652344 Z M 21.746094 0 L 8.253906 0 C 3.96875 0 0.484375 3.484375 0.484375 7.769531 L 0.484375 21.261719 C 0.484375 25.546875 3.96875 29.03125 8.253906 29.03125 L 21.746094 29.03125 C 26.03125 29.03125 29.515625 25.546875 29.515625 21.261719 L 29.515625 7.769531 C 29.515625 3.484375 26.03125 0 21.746094 0 " fill-opacity="1" fill-rule="nonzero"/></g><path fill="#004aad" d="M 23.398438 4.609375 C 22.441406 4.609375 21.65625 5.390625 21.65625 6.351562 C 21.65625 7.308594 22.441406 8.09375 23.398438 8.09375 C 24.359375 8.09375 25.140625 7.308594 25.140625 6.351562 C 25.140625 5.390625 24.359375 4.609375 23.398438 4.609375 " fill-opacity="1" fill-rule="nonzero"/><path fill="#004aad" d="M 16.789062 14.460938 C 16.753906 15.089844 17.234375 15.625 17.863281 15.664062 C 17.882812 15.664062 17.90625 15.664062 17.929688 15.664062 C 18.527344 15.664062 19.03125 15.195312 19.0625 14.589844 C 19.179688 12.578125 17.59375 10.636719 15.53125 10.265625 C 14.910156 10.152344 14.320312 10.5625 14.210938 11.179688 C 14.097656 11.800781 14.507812 12.394531 15.125 12.503906 C 16.0625 12.675781 16.839844 13.589844 16.789062 14.460938 " fill-opacity="1" fill-rule="nonzero"/></svg>