<svg xmlns="http://www.w3.org/2000/svg" xmlns:xlink="http://www.w3.org/1999/xlink" width="40" zoomAndPan="magnify" viewBox="0 0 30 30.000001" height="40" preserveAspectRatio="xMidYMid meet" version="1.0"><defs><clipPath id="25cb2e0eda"><path d="M 0.484375 0 L 29.515625 0 L 29.515625 29.03125 L 0.484375 29.03125 Z M 0.484375 0 " clip-rule="nonzero"/></clipPath></defs><g clip-path="url(#25cb2e0eda)"><path fill="#004aad" d="M 16.230469 20.996094 C 14.871094 20.738281 13.511719 19.765625 12.019531 18.339844 L 10.269531 16.589844 C 8.777344 15.097656 7.804688 13.800781 7.613281 12.375 C 7.351562 10.625 8.261719 9.265625 9.296875 8.292969 C 9.554688 8.035156 9.816406 7.839844 10.140625 7.710938 C 10.527344 7.582031 10.980469 7.710938 11.304688 8.035156 C 11.890625 8.746094 12.472656 9.527344 12.992188 10.238281 C 13.183594 10.5625 13.25 10.953125 13.183594 11.277344 C 13.054688 11.535156 12.925781 11.730469 12.667969 11.921875 C 12.214844 12.246094 11.953125 12.765625 11.953125 13.347656 C 12.019531 13.871094 12.277344 14.324219 12.667969 14.644531 L 13.898438 15.878906 C 14.222656 16.265625 14.675781 16.523438 15.191406 16.589844 C 15.777344 16.65625 16.296875 16.332031 16.683594 15.878906 C 16.878906 15.683594 17.074219 15.488281 17.332031 15.359375 C 17.722656 15.292969 18.042969 15.359375 18.367188 15.550781 C 19.082031 16.136719 19.859375 16.65625 20.574219 17.238281 C 20.898438 17.5625 21.027344 17.953125 20.898438 18.40625 C 20.765625 18.726562 20.574219 18.988281 20.3125 19.246094 C 19.082031 20.542969 17.589844 21.191406 16.230469 20.996094 Z M 15 0 C 6.964844 0 0.484375 6.480469 0.484375 14.515625 C 0.484375 22.550781 6.964844 29.03125 15 29.03125 C 23.035156 29.03125 29.515625 22.550781 29.515625 14.515625 C 29.515625 6.480469 23.035156 0 15 0 " fill-opacity="1" fill-rule="nonzero"/></g></svg>