<svg xmlns="http://www.w3.org/2000/svg" xmlns:xlink="http://www.w3.org/1999/xlink" width="40" zoomAndPan="magnify" viewBox="0 0 30 30.000001" height="40" preserveAspectRatio="xMidYMid meet" version="1.0"><defs><clipPath id="9b40103351"><path d="M 1 0 L 29.515625 0 L 29.515625 28 L 1 28 Z M 1 0 " clip-rule="nonzero"/></clipPath></defs><g clip-path="url(#9b40103351)"><path fill="#004aad" d="M 13.566406 0.808594 C 7.234375 1.511719 2.078125 6.621094 1.3125 12.941406 C 1.214844 13.738281 1.183594 14.535156 1.222656 15.335938 C 1.257812 16.136719 1.367188 16.929688 1.539062 17.710938 C 1.714844 18.496094 1.953125 19.257812 2.257812 19.996094 C 2.5625 20.738281 2.929688 21.449219 3.355469 22.128906 C 3.785156 22.804688 4.265625 23.445312 4.800781 24.039062 C 5.339844 24.636719 5.921875 25.179688 6.550781 25.675781 C 7.183594 26.171875 7.851562 26.609375 8.554688 26.992188 C 9.261719 27.371094 9.996094 27.6875 10.753906 27.945312 C 11.453125 28.054688 11.675781 27.621094 11.675781 27.246094 L 11.675781 24.886719 C 7.808594 25.726562 6.988281 23.015625 6.988281 23.015625 C 6.347656 21.394531 5.4375 20.964844 5.4375 20.964844 C 4.164062 20.097656 5.535156 20.125 5.535156 20.125 C 6.929688 20.226562 7.671875 21.5625 7.671875 21.5625 C 8.886719 23.6875 10.9375 23.058594 11.734375 22.722656 C 11.859375 21.816406 12.226562 21.199219 12.613281 20.851562 C 9.507812 20.503906 6.261719 19.300781 6.261719 13.984375 C 6.261719 12.433594 6.789062 11.191406 7.699219 10.199219 C 7.558594 9.851562 7.070312 8.398438 7.835938 6.515625 C 7.835938 6.515625 9.011719 6.136719 11.675781 7.9375 C 14.003906 7.3125 16.332031 7.3125 18.65625 7.9375 C 21.324219 6.136719 22.496094 6.515625 22.496094 6.515625 C 23.261719 8.398438 22.773438 9.851562 22.636719 10.199219 C 23.542969 11.1875 24.074219 12.433594 24.074219 13.984375 C 24.074219 19.316406 20.804688 20.488281 17.695312 20.835938 C 18.195312 21.269531 18.65625 22.121094 18.65625 23.421875 L 18.65625 27.246094 C 18.65625 27.621094 18.878906 28.070312 19.59375 27.945312 C 20.402344 27.671875 21.183594 27.328125 21.933594 26.914062 C 22.679688 26.496094 23.386719 26.015625 24.046875 25.472656 C 24.707031 24.929688 25.3125 24.328125 25.859375 23.671875 C 26.410156 23.015625 26.898438 22.316406 27.316406 21.570312 C 27.738281 20.824219 28.089844 20.046875 28.367188 19.238281 C 28.644531 18.429688 28.847656 17.601562 28.972656 16.753906 C 29.101562 15.90625 29.148438 15.054688 29.117188 14.199219 C 29.085938 13.34375 28.980469 12.5 28.792969 11.664062 C 28.609375 10.828125 28.347656 10.015625 28.015625 9.230469 C 27.679688 8.441406 27.273438 7.691406 26.800781 6.976562 C 26.328125 6.261719 25.796875 5.597656 25.203125 4.984375 C 24.605469 4.367188 23.960938 3.8125 23.261719 3.316406 C 22.566406 2.816406 21.832031 2.390625 21.054688 2.027344 C 20.277344 1.664062 19.476562 1.378906 18.648438 1.164062 C 17.820312 0.949219 16.976562 0.8125 16.125 0.753906 C 15.269531 0.695312 14.417969 0.714844 13.566406 0.808594 Z M 13.566406 0.808594 " fill-opacity="1" fill-rule="nonzero"/></g></svg>