<svg xmlns="http://www.w3.org/2000/svg" xmlns:xlink="http://www.w3.org/1999/xlink" width="1080" zoomAndPan="magnify" viewBox="0 0 810 1012.49997" height="1350" preserveAspectRatio="xMidYMid meet" version="1.0"><defs><g/><clipPath id="2096c06633"><path d="M 313.304688 466.238281 L 496.523438 466.238281 L 496.523438 555.40625 L 313.304688 555.40625 Z M 313.304688 466.238281 " clip-rule="nonzero"/></clipPath><clipPath id="f1252cb1dc"><path d="M 378.136719 466.238281 L 490.378906 466.238281 C 492.460938 466.238281 494.375 467.378906 495.363281 469.210938 C 496.355469 471.042969 496.257812 473.273438 495.117188 475.011719 L 448.113281 546.632812 C 444.519531 552.109375 438.410156 555.40625 431.863281 555.40625 L 319.621094 555.40625 C 317.539062 555.40625 315.625 554.265625 314.636719 552.433594 C 313.644531 550.601562 313.742188 548.375 314.882812 546.632812 L 361.886719 475.011719 C 365.480469 469.535156 371.589844 466.238281 378.136719 466.238281 Z M 378.136719 466.238281 " clip-rule="nonzero"/></clipPath></defs><g clip-path="url(#2096c06633)"><g clip-path="url(#f1252cb1dc)"><path fill="#000000" d="M 309.125 466.238281 L 500.703125 466.238281 L 500.703125 555.40625 L 309.125 555.40625 Z M 309.125 466.238281 " fill-opacity="1" fill-rule="nonzero"/></g></g><g fill="#ffffff" fill-opacity="1"><g transform="translate(365.625446, 532.369729)"><g><path d="M 40.515625 -37.296875 L 26.390625 -37.296875 L 26.390625 0 L 14.46875 0 L 14.46875 -37.296875 L 0.46875 -37.296875 L 0.46875 -46.9375 L 40.515625 -46.9375 Z M 40.515625 -37.296875 "/></g></g></g><g fill="#ffffff" fill-opacity="1"><g transform="translate(402.721985, 532.369729)"><g/></g></g><g fill="#ffffff" fill-opacity="1"><g transform="translate(414.439941, 532.369729)"><g><path d="M 32.015625 -46.9375 L 32.015625 -15.203125 C 32.015625 -10.242188 30.570312 -6.378906 27.6875 -3.609375 C 24.8125 -0.847656 20.847656 0.53125 15.796875 0.53125 C 9.421875 0.53125 4.046875 -1.96875 -0.328125 -6.96875 L 5.15625 -14.9375 C 8.5 -11.445312 11.78125 -9.703125 15 -9.703125 C 18.351562 -9.703125 20.03125 -11.625 20.03125 -15.46875 L 20.03125 -37.296875 L 3.953125 -37.296875 L 3.953125 -46.9375 Z M 32.015625 -46.9375 "/></g></g></g></svg>