<svg xmlns="http://www.w3.org/2000/svg" xmlns:xlink="http://www.w3.org/1999/xlink" width="500" zoomAndPan="magnify" viewBox="0 0 375 374.999991" height="500" preserveAspectRatio="xMidYMid meet" version="1.0"><defs><g/><clipPath id="00dcc86707"><path d="M 161.550781 165.613281 L 298.851562 165.613281 L 298.851562 209.386719 L 161.550781 209.386719 Z M 161.550781 165.613281 " clip-rule="nonzero"/></clipPath><clipPath id="c4e0405908"><path d="M 193.867188 165.613281 L 292.476562 165.613281 C 294.625 165.613281 296.609375 166.765625 297.675781 168.636719 C 298.742188 170.503906 298.722656 172.796875 297.625 174.648438 L 282.40625 200.351562 C 279.089844 205.953125 273.0625 209.386719 266.554688 209.386719 L 167.945312 209.386719 C 165.796875 209.386719 163.8125 208.234375 162.746094 206.363281 C 161.683594 204.496094 161.703125 202.203125 162.796875 200.351562 L 178.019531 174.648438 C 181.335938 169.046875 187.359375 165.613281 193.867188 165.613281 Z M 193.867188 165.613281 " clip-rule="nonzero"/></clipPath><clipPath id="08599865e1"><path d="M 74.5625 165.613281 L 211.863281 165.613281 L 211.863281 209.386719 L 74.5625 209.386719 Z M 74.5625 165.613281 " clip-rule="nonzero"/></clipPath><clipPath id="7d154a2a36"><path d="M 106.878906 165.613281 L 205.488281 165.613281 C 207.636719 165.613281 209.621094 166.765625 210.6875 168.636719 C 211.75 170.503906 211.730469 172.796875 210.636719 174.648438 L 195.414062 200.351562 C 192.097656 205.953125 186.074219 209.386719 179.566406 209.386719 L 80.957031 209.386719 C 78.808594 209.386719 76.824219 208.234375 75.757812 206.363281 C 74.691406 204.496094 74.710938 202.203125 75.808594 200.351562 L 91.027344 174.648438 C 94.34375 169.046875 100.371094 165.613281 106.878906 165.613281 Z M 106.878906 165.613281 " clip-rule="nonzero"/></clipPath><clipPath id="9e0cd1fcdc"><path d="M 220.089844 165.613281 L 357 165.613281 L 357 209.386719 L 220.089844 209.386719 Z M 220.089844 165.613281 " clip-rule="nonzero"/></clipPath><clipPath id="1b3cb474f6"><path d="M 252.40625 165.613281 L 351.015625 165.613281 C 353.167969 165.613281 355.152344 166.765625 356.214844 168.636719 C 357.28125 170.503906 357.261719 172.796875 356.164062 174.648438 L 340.945312 200.351562 C 337.628906 205.953125 331.601562 209.386719 325.09375 209.386719 L 226.488281 209.386719 C 224.335938 209.386719 222.351562 208.234375 221.285156 206.363281 C 220.222656 204.496094 220.242188 202.203125 221.335938 200.351562 L 236.558594 174.648438 C 239.875 169.046875 245.898438 165.613281 252.40625 165.613281 Z M 252.40625 165.613281 " clip-rule="nonzero"/></clipPath><clipPath id="6e4e99986a"><path d="M 295.550781 176 L 310 176 L 310 199 L 295.550781 199 Z M 295.550781 176 " clip-rule="nonzero"/></clipPath><clipPath id="0d8043047f"><path d="M 312 171.25 L 326 171.25 L 326 203.5 L 312 203.5 Z M 312 171.25 " clip-rule="nonzero"/></clipPath></defs><g clip-path="url(#00dcc86707)"><g clip-path="url(#c4e0405908)"><path fill="#ffffff" d="M 157.445312 165.613281 L 302.957031 165.613281 L 302.957031 209.386719 L 157.445312 209.386719 Z M 157.445312 165.613281 " fill-opacity="1" fill-rule="nonzero"/></g></g><g fill="#ffffff" fill-opacity="1"><g transform="translate(25.978813, 202.023905)"><g><path d="M 22.296875 -20.53125 L 14.515625 -20.53125 L 14.515625 0 L 7.96875 0 L 7.96875 -20.53125 L 0.265625 -20.53125 L 0.265625 -25.84375 L 22.296875 -25.84375 Z M 22.296875 -20.53125 "/></g></g></g><g fill="#ffffff" fill-opacity="1"><g transform="translate(46.400199, 202.023905)"><g/></g></g><g fill="#ffffff" fill-opacity="1"><g transform="translate(52.850851, 202.023905)"><g><path d="M 17.625 -25.84375 L 17.625 -8.359375 C 17.625 -5.640625 16.828125 -3.515625 15.234375 -1.984375 C 13.648438 -0.460938 11.472656 0.296875 8.703125 0.296875 C 5.179688 0.296875 2.21875 -1.078125 -0.1875 -3.828125 L 2.84375 -8.21875 C 4.6875 -6.300781 6.488281 -5.34375 8.25 -5.34375 C 10.09375 -5.34375 11.015625 -6.398438 11.015625 -8.515625 L 11.015625 -20.53125 L 2.171875 -20.53125 L 2.171875 -25.84375 Z M 17.625 -25.84375 "/></g></g></g><g clip-path="url(#08599865e1)"><g clip-path="url(#7d154a2a36)"><path fill="#ffffff" d="M 70.457031 165.613281 L 215.964844 165.613281 L 215.964844 209.386719 L 70.457031 209.386719 Z M 70.457031 165.613281 " fill-opacity="1" fill-rule="nonzero"/></g></g><g clip-path="url(#9e0cd1fcdc)"><g clip-path="url(#1b3cb474f6)"><path fill="#ffffff" d="M 215.988281 165.613281 L 361.496094 165.613281 L 361.496094 209.386719 L 215.988281 209.386719 Z M 215.988281 165.613281 " fill-opacity="1" fill-rule="nonzero"/></g></g><g clip-path="url(#6e4e99986a)"><path fill="#000000" d="M 307.339844 198.957031 C 306.652344 198.957031 306.195312 198.730469 305.738281 198.273438 L 296.570312 189.191406 C 295.652344 188.28125 295.652344 186.917969 296.570312 186.011719 L 305.738281 176.925781 C 306.652344 176.019531 308.027344 176.019531 308.945312 176.925781 C 309.863281 177.835938 309.863281 179.199219 308.945312 180.105469 L 301.382812 187.601562 L 308.945312 195.09375 C 309.863281 196.003906 309.863281 197.367188 308.945312 198.273438 C 308.488281 198.730469 308.027344 198.957031 307.339844 198.957031 Z M 307.339844 198.957031 " fill-opacity="1" fill-rule="nonzero"/></g><path fill="#000000" d="M 330.261719 198.957031 C 329.574219 198.957031 329.113281 198.730469 328.65625 198.273438 C 327.738281 197.367188 327.738281 196.003906 328.65625 195.09375 L 336.21875 187.601562 L 328.65625 180.105469 C 327.738281 179.199219 327.738281 177.835938 328.65625 176.925781 C 329.574219 176.019531 330.949219 176.019531 331.863281 176.925781 L 341.03125 186.011719 C 341.949219 186.917969 341.949219 188.28125 341.03125 189.191406 L 331.863281 198.273438 C 331.40625 198.730469 330.949219 198.957031 330.261719 198.957031 Z M 330.261719 198.957031 " fill-opacity="1" fill-rule="nonzero"/><g clip-path="url(#0d8043047f)"><path fill="#000000" d="M 314.21875 203.5 C 313.988281 203.5 313.757812 203.5 313.53125 203.269531 C 312.382812 202.816406 311.695312 201.679688 312.152344 200.320312 L 321.320312 173.066406 C 321.78125 171.929688 322.925781 171.25 324.300781 171.703125 C 325.449219 172.15625 326.136719 173.292969 325.675781 174.65625 L 316.507812 201.910156 C 316.050781 202.816406 315.132812 203.5 314.21875 203.5 Z M 314.21875 203.5 " fill-opacity="1" fill-rule="nonzero"/></g><g fill="#000000" fill-opacity="1"><g transform="translate(89.989914, 202.023905)"><g><path d="M 12.5 -26.09375 C 16.351562 -26.09375 19.742188 -25.132812 22.671875 -23.21875 L 20.203125 -18.09375 C 18.847656 -18.882812 17.394531 -19.53125 15.84375 -20.03125 C 14.300781 -20.53125 13 -20.78125 11.9375 -20.78125 C 10.050781 -20.78125 9.109375 -20.15625 9.109375 -18.90625 C 9.109375 -18.09375 9.570312 -17.441406 10.5 -16.953125 C 11.4375 -16.460938 12.570312 -16.039062 13.90625 -15.6875 C 15.25 -15.332031 16.585938 -14.898438 17.921875 -14.390625 C 19.265625 -13.890625 20.398438 -13.070312 21.328125 -11.9375 C 22.265625 -10.8125 22.734375 -9.390625 22.734375 -7.671875 C 22.734375 -5.179688 21.765625 -3.242188 19.828125 -1.859375 C 17.890625 -0.472656 15.421875 0.21875 12.421875 0.21875 C 10.285156 0.21875 8.171875 -0.144531 6.078125 -0.875 C 3.992188 -1.613281 2.175781 -2.625 0.625 -3.90625 L 3.171875 -8.953125 C 4.472656 -7.828125 6.007812 -6.898438 7.78125 -6.171875 C 9.550781 -5.453125 11.125 -5.09375 12.5 -5.09375 C 13.550781 -5.09375 14.367188 -5.28125 14.953125 -5.65625 C 15.546875 -6.039062 15.84375 -6.597656 15.84375 -7.328125 C 15.84375 -8.046875 15.503906 -8.644531 14.828125 -9.125 C 14.160156 -9.601562 13.320312 -9.957031 12.3125 -10.1875 C 11.300781 -10.425781 10.207031 -10.738281 9.03125 -11.125 C 7.851562 -11.519531 6.757812 -11.953125 5.75 -12.421875 C 4.738281 -12.890625 3.894531 -13.632812 3.21875 -14.65625 C 2.550781 -15.675781 2.21875 -16.894531 2.21875 -18.3125 C 2.21875 -20.675781 3.15625 -22.5625 5.03125 -23.96875 C 6.90625 -25.382812 9.394531 -26.09375 12.5 -26.09375 Z M 12.5 -26.09375 "/></g></g></g><g fill="#000000" fill-opacity="1"><g transform="translate(111.627749, 202.023905)"><g><path d="M 14.8125 -26.015625 C 18.820312 -26.015625 22.148438 -24.769531 24.796875 -22.28125 C 27.453125 -19.789062 28.78125 -16.675781 28.78125 -12.9375 C 28.78125 -9.175781 27.445312 -6.03125 24.78125 -3.5 C 22.113281 -0.96875 18.789062 0.296875 14.8125 0.296875 C 10.832031 0.296875 7.515625 -0.960938 4.859375 -3.484375 C 2.210938 -6.003906 0.890625 -9.15625 0.890625 -12.9375 C 0.890625 -16.695312 2.210938 -19.816406 4.859375 -22.296875 C 7.515625 -24.773438 10.832031 -26.015625 14.8125 -26.015625 Z M 14.890625 -20.53125 C 12.878906 -20.53125 11.160156 -19.796875 9.734375 -18.328125 C 8.304688 -16.867188 7.59375 -15.054688 7.59375 -12.890625 C 7.59375 -10.734375 8.3125 -8.910156 9.75 -7.421875 C 11.1875 -5.941406 12.898438 -5.203125 14.890625 -5.203125 C 16.878906 -5.203125 18.566406 -5.941406 19.953125 -7.421875 C 21.347656 -8.910156 22.046875 -10.734375 22.046875 -12.890625 C 22.046875 -15.054688 21.347656 -16.867188 19.953125 -18.328125 C 18.566406 -19.796875 16.878906 -20.53125 14.890625 -20.53125 Z M 14.890625 -20.53125 "/></g></g></g><g fill="#000000" fill-opacity="1"><g transform="translate(139.200385, 202.023905)"><g><path d="M 21.703125 -20.640625 L 9.140625 -20.640625 L 9.140625 -14.671875 L 20.71875 -14.671875 L 20.71875 -9.515625 L 9.140625 -9.515625 L 9.140625 0 L 2.578125 0 L 2.578125 -25.796875 L 21.703125 -25.796875 Z M 21.703125 -20.640625 "/></g></g></g><g fill="#000000" fill-opacity="1"><g transform="translate(159.363728, 202.023905)"><g><path d="M 22.296875 -20.53125 L 14.515625 -20.53125 L 14.515625 0 L 7.96875 0 L 7.96875 -20.53125 L 0.265625 -20.53125 L 0.265625 -25.84375 L 22.296875 -25.84375 Z M 22.296875 -20.53125 "/></g></g></g><g fill="#000000" fill-opacity="1"><g transform="translate(179.785118, 202.023905)"><g><path d="M 31.59375 0 L 24.84375 0 L 20.046875 -17.84375 L 15.1875 0 L 8.40625 0 L -0.03125 -25.796875 L 6.96875 -25.796875 L 12.015625 -6.8125 L 16.953125 -25.796875 L 23.375 -25.796875 L 28.421875 -6.8125 L 33.390625 -25.796875 L 40.109375 -25.796875 Z M 31.59375 0 "/></g></g></g><g fill="#000000" fill-opacity="1"><g transform="translate(217.531685, 202.023905)"><g><path d="M 19.71875 -4.75 L 8.4375 -4.75 L 6.5625 0 L -0.1875 0 L 10.953125 -25.796875 L 17.6875 -25.796875 L 28.5625 0 L 21.5625 0 Z M 17.796875 -9.734375 L 14.109375 -19.28125 L 10.359375 -9.734375 Z M 17.796875 -9.734375 "/></g></g></g><g fill="#000000" fill-opacity="1"><g transform="translate(243.814144, 202.023905)"><g><path d="M 18.140625 0 L 14.296875 -7.265625 L 9.140625 -7.265625 L 9.140625 0 L 2.578125 0 L 2.578125 -25.796875 L 14.109375 -25.796875 C 17.523438 -25.796875 20.164062 -25.015625 22.03125 -23.453125 C 23.90625 -21.898438 24.84375 -19.6875 24.84375 -16.8125 C 24.84375 -12.832031 23.28125 -10.066406 20.15625 -8.515625 L 25.578125 0 Z M 9.140625 -12.421875 L 14.109375 -12.421875 C 15.535156 -12.421875 16.640625 -12.773438 17.421875 -13.484375 C 18.210938 -14.203125 18.609375 -15.238281 18.609375 -16.59375 C 18.609375 -17.914062 18.210938 -18.921875 17.421875 -19.609375 C 16.640625 -20.296875 15.535156 -20.640625 14.109375 -20.640625 L 9.140625 -20.640625 Z M 9.140625 -12.421875 "/></g></g></g><g fill="#000000" fill-opacity="1"><g transform="translate(268.400934, 202.023905)"><g><path d="M 22.78125 -20.640625 L 9.140625 -20.640625 L 9.140625 -15.515625 L 21.453125 -15.515625 L 21.453125 -10.359375 L 9.140625 -10.359375 L 9.140625 -5.15625 L 23.1875 -5.15625 L 23.1875 0 L 2.578125 0 L 2.578125 -25.796875 L 22.78125 -25.796875 Z M 22.78125 -20.640625 "/></g></g></g><g fill="#000000" fill-opacity="1"><g transform="translate(291.149403, 202.023905)"><g/></g></g></svg>