<svg xmlns="http://www.w3.org/2000/svg" version="1.1" xmlns:xlink="http://www.w3.org/1999/xlink" xmlns:svgjs="http://svgjs.dev/svgjs" width="1440" height="560" preserveAspectRatio="none" viewBox="0 0 1440 560"><g mask="url(&quot;#SvgjsMask1000&quot;)" fill="none"><rect width="1440" height="560" x="0" y="0" fill="#0e2a47"></rect><path d="M 0,94 C 57.6,125.8 172.8,258.8 288,253 C 403.2,247.2 460.8,75.4 576,65 C 691.2,54.6 748.8,196.2 864,201 C 979.2,205.8 1036.8,85.4 1152,89 C 1267.2,92.6 1382.4,193 1440,219L1440 560L0 560z" fill="#184a7e"></path><path d="M 0,503 C 96,468 288,326.6 480,328 C 672,329.4 768,513.4 960,510 C 1152,506.6 1344,350.8 1440,311L1440 560L0 560z" fill="#2264ab"></path></g><defs><mask id="SvgjsMask1000"><rect width="1440" height="560" fill="#ffffff"></rect></mask></defs></svg>