<svg xmlns="http://www.w3.org/2000/svg" version="1.1" xmlns:xlink="http://www.w3.org/1999/xlink" xmlns:svgjs="http://svgjs.dev/svgjs" width="100%" height="100%" preserveAspectRatio="none" viewBox="0 0 1440 560"><g mask="url(&quot;#SvgjsMask1008&quot;)" fill="none"><path d="M -313.1731348887445,95 C -217.17,168.8 -25.17,457.4 166.82686511125547,464 C 358.83,470.6 454.83,128.4 646.8268651112555,128 C 838.83,127.6 934.83,473.2 1126.8268651112555,462 C 1318.83,450.8 1544.19,73 1606.8268651112555,72 C 1669.46,71 1473.37,380 1440,457" stroke="rgba(51, 121, 194, 0.58)" stroke-width="2" class="svg-elem-1"></path><path d="M -54.32587647246828,270 C 41.67,282.2 233.67,349 425.6741235275317,331 C 617.67,313 713.67,155 905.6741235275317,180 C 1097.67,205 1193.67,480.6 1385.6741235275317,456 C 1577.67,431.4 1854.81,51.6 1865.6741235275317,57 C 1876.54,62.4 1525.13,397.8 1440,483" stroke="rgba(51, 121, 194, 0.58)" stroke-width="2" class="svg-elem-2"></path><path d="M -593.7963363016364,471 C -497.8,398.2 -305.8,113.6 -113.79633630163642,107 C 78.2,100.4 174.2,424.8 366.2036636983636,438 C 558.2,451.2 654.2,194.6 846.2036636983636,173 C 1038.2,151.4 1207.44,348 1326.2036636983635,330 C 1444.96,312 1417.24,132.4 1440,83" stroke="rgba(51, 121, 194, 0.58)" stroke-width="2" class="svg-elem-3"></path><path d="M -549.6452393970729,355 C -453.65,325.8 -261.65,185.4 -69.64523939707294,209 C 122.35,232.6 218.35,464.2 410.35476060292706,473 C 602.35,481.8 698.35,267.6 890.3547606029271,253 C 1082.35,238.4 1260.43,415.8 1370.354760602927,400 C 1480.28,384.2 1426.07,219.2 1440,174" stroke="rgba(51, 121, 194, 0.58)" stroke-width="2" class="svg-elem-4"></path></g><defs><mask id="SvgjsMask1008"><rect width="1440" height="560" fill="#ffffff" class="svg-elem-5"></rect></mask></defs></svg>